<?xml version="1.0" encoding="UTF-8" standalone="no"?>
<!-- Created with Inkscape (http://www.inkscape.org/) -->

<svg
   width="1918.5367mm"
   height="771.9967mm"
   viewBox="0 0 1918.5367 771.9967"
   version="1.1"
   id="svg29426"
   sodipodi:docname="laramai_white.svg"
   inkscape:export-filename="laramai.png"
   inkscape:export-xdpi="505.97794"
   inkscape:export-ydpi="505.97794"
   inkscape:version="1.2.1 (9c6d41e410, 2022-07-14)"
   xmlns:inkscape="http://www.inkscape.org/namespaces/inkscape"
   xmlns:sodipodi="http://sodipodi.sourceforge.net/DTD/sodipodi-0.dtd"
   xmlns="http://www.w3.org/2000/svg"
   xmlns:svg="http://www.w3.org/2000/svg">
  <sodipodi:namedview
     id="namedview29428"
     pagecolor="#ffffff"
     bordercolor="#000000"
     borderopacity="0.25"
     inkscape:showpageshadow="2"
     inkscape:pageopacity="0.0"
     inkscape:pagecheckerboard="0"
     inkscape:deskcolor="#d1d1d1"
     inkscape:document-units="mm"
     showgrid="false"
     inkscape:zoom="0.12220607"
     inkscape:cx="3502.281"
     inkscape:cy="1644.7628"
     inkscape:window-width="1920"
     inkscape:window-height="974"
     inkscape:window-x="-11"
     inkscape:window-y="-11"
     inkscape:window-maximized="1"
     inkscape:current-layer="layer1" />
  <defs
     id="defs29423" />
  <g
     inkscape:label="Layer 1"
     inkscape:groupmode="layer"
     id="layer1"
     transform="translate(-0.17497221,-157.71813)">
    <g
       id="g31439"
       transform="matrix(19.109002,0,0,19.109002,-934.78573,-1518.726)"
       style="stroke:#fffcf8;stroke-opacity:1">
      <g
         inkscape:label="Hershey Text"
         style="fill:none;stroke:#fffcf8;stroke-width:2.88498;stroke-linecap:round;stroke-linejoin:round;stroke-dasharray:none;stroke-opacity:1"
         transform="matrix(0.42540957,0,0,0.53629617,31.483348,76.134879)"
         id="g4218-6-1-2">
        <g
           transform="translate(41.9375,76.3757)"
           id="g4216-5-5-0"
           style="stroke:#fffcf8;stroke-width:2.88498;stroke-dasharray:none;stroke-opacity:1">
          <path
             d="M 362.90202,568.56861 C 252.45957,395.46965 259.97073,296.32033 349.08093,115.76854 M 276.89071,522.0899 c 41.52435,33.45146 91.78158,58.14087 164.3864,87.24668 M 251.40635,183.12909 C 338.62485,103.21121 476.96427,44.41655 557.19974,19.725224 L 555.09111,130.1113 534.63423,44.814773"
             style="stroke:#fffcf8;stroke-width:54.0935;stroke-dasharray:none;stroke-opacity:1"
             transform="scale(0.0533333,-0.0533333)"
             id="path4202-0-7-9"
             sodipodi:nodetypes="cccccccc" />
          <path
             d="M 377.25449,763.71501 C 219.1944,572.50226 145.54063,305.92743 150.54489,-41.395643 M 378.74551,762.53228 C 391.85167,507.82516 408.27584,255.9826 624.83839,-151.38978 M 167.28441,233.32487 c 109.91793,-16.4926 170.27046,-25.23411 306.09398,-41.81592 M 102.24196,-30.20171 c 54.82186,-20.11011 92.87462,-30.330826 151.9376,-46.675913 m 262.73199,-55.313767 c 59.10491,-11.13522 107.70886,-19.61429 161.84692,-28.38558 M 283.53524,743.74687 c 72.71183,18.78335 101.44013,25.10438 165.70541,36.2972"
             style="stroke:#fffcf8;stroke-width:54.0935;stroke-dasharray:none;stroke-opacity:1"
             transform="matrix(0.0533333,0,0,-0.0533333,30.24,0)"
             id="path4204-8-8-4"
             sodipodi:nodetypes="cccccccccccc" />
          <path
             d="M 220,829.26366 C 135.08958,431.14053 122.54209,303.3218 220,-175.62684 m -94,1004.8905 c 131.22469,18.32822 160.76186,24.0482 277.53497,32.22223 53.32145,0.13023 137.67416,-2.8639 142.80001,-88.25978 C 512.27466,565.81856 505.78942,504.24616 499.29867,298.19493 492.67411,230.11681 470.11542,155.11378 406.28315,147.43021 299.671,142.21505 255.81682,151.54287 175.78791,157.46603 m -28.57377,-329.09679 c 69.07474,-9.70381 101.95304,-12.41572 180.89359,-20.55434 m 10.83486,337.46872 c 20.4555,-1.57921 51.64984,-4.24704 76.77071,-22.61429 10.83801,-8.48873 10.55763,-7.75893 29.85974,-34.390343 75.42307,-237.518917 82.43076,-242.346647 107.66809,-296.201637 m -108.48161,3.74248 c 87.30272,-5.86436 100.66754,-6.60936 186.92944,-10.80108"
             style="stroke:#fffcf8;stroke-width:54.0935;stroke-dasharray:none;stroke-opacity:1"
             transform="matrix(0.0533333,0,0,-0.0533333,63.84,0)"
             id="path4206-8-5-8"
             sodipodi:nodetypes="cccccccccccccccc" />
          <path
             d="M 378,884.35374 C 247.69085,478.16258 130.32784,81.444672 119.23343,-218.80554 M 378,884.35374 C 501.83302,522.94959 589.90299,156.38753 626.32942,-217.62281 m -455.52029,339.123 c 135.56515,-3.52554 248.44992,-4.576 404.70318,-0.97981 M 55.73343,-218.80554 c 60.4763,-1.94909 125.72242,-3.26758 192.10929,-4.43525 m 251.74119,0 c 64.02016,1.96575 127.34268,5.0383 190.37275,8.57481 M 285.51512,885.02115 c 73.93304,0.6606 101.943,0.72644 181.08093,-2.72505"
             style="stroke:#fffcf8;stroke-width:54.0935;stroke-dasharray:none;stroke-opacity:1"
             transform="matrix(0.0533333,0,0,-0.0533333,100.8,0)"
             id="path4208-5-7-7"
             sodipodi:nodetypes="cccccccccccc" />
          <path
             d="M 220.74551,858.92499 C 226.06488,495.63771 230.24169,137.2774 220,-195.15089 M 220.68854,859.51635 458.3807,-87.615212 M 693.31146,806.29339 458.39614,-87.292562 M 693,808.65885 V -143.31358 M 134.20062,866.61275 c 42.2485,-1.58227 80.76945,-2.58443 122.27245,-7.68776 m 404.03591,-44.94384 c 52.89532,-6.7739 78.02664,-11.03884 124.50898,-20.10646 M 146.61849,-205.74835 c 62.26112,4.02316 107.70211,6.43504 174.18022,12.68826 m 252.52716,30.09303 c 82.59534,12.37923 108.54172,15.19788 187.92618,28.79355"
             style="stroke:#fffcf8;stroke-width:54.0935;stroke-dasharray:none;stroke-opacity:1"
             transform="matrix(0.0533333,0,0,-0.0533333,134.4,0)"
             id="path4210-3-4-0"
             sodipodi:nodetypes="cccccccccccccccc" />
          <path
             d="M 378,697.12537 124.26203,-100.3582 M 378,700.47064 549.50166,25.089549 M 221.49102,202.01006 c 91.18761,12.47572 180.88421,25.88992 273.56285,41.98701 m -431.656066,-359.409 c 79.259846,15.440317 123.402396,28.362241 187.918536,44.743029 m 198.54311,56.86965 c 57.04831,18.2272168 111.68711,38.36574 163.11505,61.051235"
             style="stroke:#fffcf8;stroke-width:54.0935;stroke-dasharray:none;stroke-opacity:1"
             transform="matrix(0.0533333,0,0,-0.0533333,176.427,0)"
             id="path4212-6-6-0"
             sodipodi:nodetypes="cccccccccc" />
          <path
             d="M 125.95566,535.27949 C 186.96946,391.356 188.12972,261.57145 130.17292,127.26984 M 60.81889,575.42277 c 65.73837,-34.56015 97.01182,-55.04039 143.03524,-90.32237 M 56.601643,81.272337 C 111.66024,114.41869 163.5559,143.61757 218.61449,193.33898"
             style="stroke:#fffcf8;stroke-width:54.0935;stroke-dasharray:none;stroke-opacity:1"
             transform="matrix(0.0533333,0,0,-0.0533333,210.027,0)"
             id="path4214-2-7-6"
             sodipodi:nodetypes="cccccc" />
        </g>
      </g>
      <path
         style="fill:none;fill-opacity:1;stroke:#fffcf8;stroke-width:1.052;stroke-dasharray:none;stroke-opacity:1"
         id="path6909-9"
         sodipodi:type="arc"
         sodipodi:cx="99.127579"
         sodipodi:cy="107.93041"
         sodipodi:rx="49.673817"
         sodipodi:ry="19.673817"
         sodipodi:start="0"
         sodipodi:end="6.28281"
         sodipodi:open="true"
         sodipodi:arc-type="arc"
         d="M 148.8014,107.93041 A 49.673817,19.673817 0 0 1 99.132239,127.60423 49.673817,19.673817 0 0 1 49.453763,107.9341 49.673817,19.673817 0 0 1 99.113597,88.256596 49.673817,19.673817 0 0 1 148.80139,107.92303" />
    </g>
  </g>
</svg>
